<svg width="65" height="65" xmlns="http://www.w3.org/2000/svg">

 <g>
  <title>background</title>
  <rect fill="none" id="canvas_background" height="67" width="67" y="-1" x="-1"/>
 </g>
 <g>
  <title>Layer 1</title>
  <g id="svg_14">
   <circle id="svg_15" r="0.721" cy="32.016" cx="28.752" fill="#355177" opacity="0.9"/>
   <circle id="svg_16" r="0.721" cy="28.747" cx="28.752" fill="#355177" opacity="0.9"/>
   <g id="svg_17">
    <path id="svg_18" d="m32.393002,1.017c-17.388001,0 -31.484002,14.096 -31.484002,31.483c0,17.387001 14.096,31.481998 31.484002,31.481998s31.481998,-14.092999 31.481998,-31.481998c0,-17.387 -14.094002,-31.483 -31.481998,-31.483zm12.635998,48.356001l-25.571999,0c-0.035,0 -0.066,-0.007999 -0.1,-0.012001c-6.073,-0.210999 -10.949,-5.213001 -10.949,-11.335999c0,-6.369001 3.447,-10.629002 9.573001,-10.820002c0.698,-0.031 1.265999,0.52 1.287998,1.210001c0.021002,0.688999 -0.519999,1.266998 -1.210999,1.287998c-4.723001,0.147001 -7.150001,3.357002 -7.150001,8.322002c0,4.878998 3.969,8.848 8.848001,8.848l25.271999,0c4.879002,0 8.848,-3.969002 8.848,-8.848c0,-4.851002 -3.887001,-8.649002 -8.848,-8.649002c-0.611,0 -1.117001,-0.438 -1.227001,-1.017c-0.021999,-0.077 -0.035999,-0.163 -0.035999,-0.262999c0,-5.721001 -4.653999,-9.875 -10.374001,-9.875c-5.719999,0 -10.372999,4.653999 -10.372999,10.375c0,5.720001 4.653,10.371998 10.372999,10.371998c3.027,0 5.889999,-1.314999 7.866001,-3.612l-1.595001,-1.022999l4.370003,-0.951l0.948997,4.368999l-1.550999,-0.996998c-0.045002,0.085999 -0.097,0.169998 -0.164001,0.247997c-2.469997,2.899002 -6.07,4.562 -9.875,4.562c-7.150999,0 -12.966999,-5.815998 -12.966999,-12.966c0,-7.150999 5.816,-12.967 12.966999,-12.967c6.760002,0 12.326,4.754001 12.912003,11.317c5.740997,0.604 10.070999,5.253 10.070999,11.08c0.001999,6.254002 -5.089001,11.345001 -11.345001,11.345001zm-6.723,-19.125002l-9.673,0c-0.827999,0 -1.5,-0.671 -1.5,-1.5s0.671001,-1.5 1.5,-1.5l9.673,0c0.827999,0 1.5,0.671001 1.5,1.5s-0.672001,1.5 -1.5,1.5zm1.5,1.768c0,0.828003 -0.672001,1.5 -1.5,1.5l-9.673,0c-0.827999,0 -1.5,-0.671997 -1.5,-1.5c0,-0.827999 0.671001,-1.499998 1.5,-1.499998l9.673,0c0.827999,0 1.5,0.671999 1.5,1.499998zm-1.5,-5.122l-9.673,0c-0.827999,0 -1.5,-0.671 -1.5,-1.5s0.671001,-1.5 1.5,-1.5l9.673,0c0.827999,0 1.5,0.672001 1.5,1.5c0,0.829 -0.672001,1.5 -1.5,1.5z" fill="#355177" opacity="0.9"/>
    <circle id="svg_19" r="0.721" cy="25.395" cx="28.752" fill="#355177" opacity="0.9"/>
   </g>
  </g>
 </g>
</svg>